Coordinates
version=1
nRows=10
nColumns=40
inDegrees=yes

Units are S.I. units (second, meters, Newtons, ...)
Angles are in degrees.

endheader
time	pelvis_tilt	pelvis_list	pelvis_rotation	pelvis_tx	pelvis_ty	pelvis_tz	hip_flexion_r	hip_adduction_r	hip_rotation_r	knee_angle_r	knee_angle_r_beta	ankle_angle_r	subtalar_angle_r	mtp_angle_r	hip_flexion_l	hip_adduction_l	hip_rotation_l	knee_angle_l	knee_angle_l_beta	ankle_angle_l	subtalar_angle_l	mtp_angle_l	lumbar_extension	lumbar_bending	lumbar_rotation	arm_flex_r	arm_add_r	arm_rot_r	elbow_flex_r	pro_sup_r	wrist_flex_r	wrist_dev_r	arm_flex_l	arm_add_l	arm_rot_l	elbow_flex_l	pro_sup_l	wrist_flex_l	wrist_dev_l
     26.11500000	     -7.85058724	     -4.80418584	      9.00175534	      0.95826706	      0.91585535	      0.46136675	      1.41650031	      0.82516990	    -16.21795594	     17.01683106	     17.01683106	     17.27011727	      0.18402594	     -5.43216410	     31.01278493	     -3.73994195	      4.53264829	     27.61482145	     27.61482145	      6.64907949	    -14.71218269	      7.30212905	     -8.76968008	      3.17557143	      4.44670117	     31.95410466	    -16.89264473	    -17.86598728	     90.81047970	     45.12187158	      0.00000000	      0.00000000	     -3.99743045	     -8.39878808	     -4.26579781	     41.42609676	     46.10129172	      0.00000000	      0.00000000
     26.13342857	     -7.83994944	     -4.96125101	      8.68275493	      0.95992715	      0.91603952	      0.45725116	      0.96370809	      0.65569363	    -16.22397859	     17.08395337	     17.08395337	     16.96041248	      0.79265639	     -5.69021453	     30.90136202	     -3.70803175	      4.63128818	     28.46557633	     28.46557633	      7.31367381	    -15.36155839	      7.49480333	     -8.71321608	      3.40519929	      5.18122065	     31.06658197	    -17.46287791	    -18.03800375	     88.15990291	     45.21223596	      0.00000000	      0.00000000	     -2.93823562	     -8.52150222	     -4.48177479	     42.78731255	     46.14876598	      0.00000000	      0.00000000
     26.15185714	     -7.83962002	     -5.01955775	      8.34356633	      0.96148819	      0.91621518	      0.45304812	      0.53854189	      0.30877329	    -16.40159563	     17.21620787	     17.21620787	     16.65862753	      1.74257426	     -6.23629027	     30.69348034	     -3.58138022	      4.63615267	     29.16724291	     29.16724291	      8.07521804	    -15.90179338	      8.02192015	     -8.63875401	      3.52845329	      5.69460357	     30.54248592	    -17.65388921	    -18.44303665	     84.36911732	     45.34716493	      0.00000000	      0.00000000	     -2.07845759	     -8.76231101	     -4.57171728	     44.54062912	     46.18472928	      0.00000000	      0.00000000
     26.17028571	     -7.84324931	     -5.04096997	      8.02831951	      0.96288727	      0.91630022	      0.44877944	      0.11467634	     -0.09666186	    -16.68535897	     17.31149184	     17.31149184	     16.13076269	      2.70411898	     -7.57117676	     30.53395151	     -3.40023794	      4.61571639	     29.97942057	     29.97942057	      9.35531240	    -16.21772400	      9.70875893	     -8.52560428	      3.63792750	      4.73838644	     31.58429003	    -16.39378462	    -18.28275490	     78.41554618	     45.53386758	      0.00000000	      0.00000000	     -2.47492450	     -9.51156846	     -4.44923253	     47.41150381	     46.20931276	      0.00000000	      0.00000000
     26.18871429	     -7.85138165	     -5.16039650	      7.66399721	      0.96417652	      0.91630571	      0.44458288	     -0.26628985	     -0.35871488	    -16.66403764	     17.42392116	     17.42392116	     15.86203779	      3.40140939	     -7.89278723	     30.30064880	     -3.37166581	      4.49498973	     30.57700124	     30.57700124	     10.03833795	    -16.57917041	      9.78178310	     -8.50734607	      3.86306917	      5.48955135	     30.49259125	    -17.07180668	    -18.46497800	     75.42146506	     45.63321871	      0.00000000	      0.00000000	     -1.27267811	     -9.67507847	     -4.61484389	     48.77769263	     46.25509461	      0.00000000	      0.00000000
     26.20714286	     -7.86975734	     -5.22036947	      7.29671214	      0.96534354	      0.91626398	      0.44036017	     -0.60355242	     -0.73322320	    -16.77747232	     17.60162891	     17.60162891	     15.58596681	      4.31116274	     -8.42553177	     30.03258207	     -3.29162795	      4.31368627	     31.11143531	     31.11143531	     10.78788779	    -16.83745533	     10.02227454	     -8.45277557	      4.02429099	      5.93204529	     29.80369806	    -17.38217534	    -18.83309251	     71.35213336	     45.77452627	      0.00000000	      0.00000000	     -0.26149753	     -9.98087613	     -4.49557530	     50.18446325	     46.27423167	      0.00000000	      0.00000000
     26.22557143	     -7.90931360	     -5.24993781	      6.94960475	      0.96630771	      0.91617389	      0.43614738	     -0.88200614	     -1.13914904	    -16.86481536	     17.78408557	     17.78408557	     15.01770462	      4.98233077	     -9.74077733	     29.77599680	     -3.15630746	      4.15965335	     31.62558200	     31.62558200	     11.85400921	    -17.00410883	     11.13204950	     -8.32938674	      4.17779197	      4.89693734	     30.98579911	    -16.20527669	    -18.87396197	     64.45616133	     45.98524909	      0.00000000	      0.00000000	     -0.29701579	    -10.97257706	     -3.96936589	     52.14321545	     46.27568778	      0.00000000	      0.00000000
     26.24400000	     -7.95265722	     -5.30267710	      6.54915196	      0.96716506	      0.91608618	      0.43204781	     -1.00844603	     -1.53825987	    -16.75247466	     18.22677945	     18.22677945	     14.74076033	      5.48856626	    -10.14393142	     29.44017100	     -3.11050506	      3.87175513	     31.95762100	     31.95762100	     12.49522065	    -17.11809221	     11.07581388	     -8.33344634	      4.34946281	      5.49958455	     29.64105787	    -16.77599365	    -19.01896809	     61.56257916	     46.07745329	      0.00000000	      0.00000000	      0.96213973	    -11.14770490	     -4.13763807	     53.26480451	     46.32206769	      0.00000000	      0.00000000
     26.26242857	     -8.00474876	     -5.32381803	      6.15986195	      0.96779451	      0.91605535	      0.42796798	     -1.04356647	     -2.00080876	    -16.70749073	     18.75304960	     18.75304960	     14.08274663	      5.88276797	    -11.52635053	     29.08648938	     -3.01126217	      3.61550745	     32.22706612	     32.22706612	     13.29472866	    -17.18428989	     11.49945605	     -8.25089415	      4.45907498	      4.96441880	     30.16758325	    -16.25156606	    -19.29261920	     55.07299503	     46.28104261	      0.00000000	      0.00000000	      1.60240037	    -11.92850979	     -3.65147091	     54.23450804	     46.32788607	      0.00000000	      0.00000000
     26.28085714	     -8.09853622	     -5.33678481	      5.71283688	      0.96818318	      0.91599296	      0.42404537	     -0.72080975	     -2.52616155	    -16.39264880	     19.84223972	     19.84223972	     13.71744978	      5.91974741	    -12.11103874	     28.70510369	     -2.95994229	      3.22116898	     32.32853700	     32.32853700	     13.84999112	    -17.17449972	     11.37701575	     -8.29102493	      4.57310589	      5.40108632	     28.62077709	    -16.68178820	    -19.39067592	     52.52967203	     46.35894600	      0.00000000	      0.00000000	      2.86044424	    -12.13120141	     -3.89186795	     55.23337861	     46.37945748	      0.00000000	      0.00000000
